PathFileType	4	(X/Y/Z)	31_1_42_p0_0-276.trc
DataRate	CameraRate	NumFrames	NumMarkers	Units	OrigDataRate	OrigDataStartFrame	OrigNumFrames
47.0	47.0	7	27	m	47.0	173	277
Frame#	Time	RHip			RKnee			RAnkle			RBigToe			RSmallToe			RHeel			LHip			LKnee			LAnkle			LBigToe			LSmallToe			LHeel			Neck			Head			Nose			RShoulder			RElbow			RWrist			RThumb			RIndex			RPinky			LShoulder			LElbow			LWrist			LThumb			LIndex			LPinky			
		X1	Y1	Z1	X2	Y2	Z2	X3	Y3	Z3	X4	Y4	Z4	X5	Y5	Z5	X6	Y6	Z6	X7	Y7	Z7	X8	Y8	Z8	X9	Y9	Z9	X10	Y10	Z10	X11	Y11	Z11	X12	Y12	Z12	X13	Y13	Z13	X14	Y14	Z14	X15	Y15	Z15	X16	Y16	Z16	X17	Y17	Z17	X18	Y18	Z18	X19	Y19	Z19	X20	Y20	Z20	X21	Y21	Z21	X22	Y22	Z22	X23	Y23	Z23	X24	Y24	Z24	X25	Y25	Z25	X26	Y26	Z26	X27	Y27	Z27	
173	3.6808510638297873	0.20369785440528046	0.7673039591159326	0.32821684225230374	0.11915045314498421	0.6588588581611721	0.6907326137562733	0.06333033873026654	1.0909852062374217	0.9598122696076005	0.05464994054982317	0.801574735571058	1.0167443373557197	0.1005020471175153	0.8480548565778202	1.0025943881485944	0.08825936580439364	1.1249381759684394	0.9773430263095935	-0.00100824381378779	0.7943661880522234	0.2630422507717482	-0.10740609585584658	0.6642768769769424	0.5686747236322051	-0.07400135720304686	0.9975601149503988	0.8988311250923073	-0.0679383949328513	0.8571208390491776	1.0074800867686495	-0.12317841622391196	0.9259275393327737	1.0035737476383801	-0.0720993301441096	1.059939714074434	0.9330355553617918	0.011877917657906219	0.45453646561814637	0.37121583079676473	-0.08990158373547488	-0.025265537609976057	0.35469941702379865	-0.06410609565577413	0.2162500666259218	0.44942554043138494	0.18517505116062868	0.3468121903268971	0.36642508021770076	0.20943932466861204	0.41952614190825166	0.6414370832470636	0.08847201933438077	0.3348226712029815	0.8868916554934732	-0.006959689002247002	0.2795452972414198	0.9339425111721262	0.010242046651903394	0.163603306824078	0.953933913434409	0.0926378554821735	0.1781952712160294	0.9742469115656479	-0.14041260374161132	0.47052298155525707	0.302260545083103	-0.20330267492121668	0.6091370459471006	0.5314904060498307	-0.12974398745637652	0.5608741364865797	0.7864447849454573	-0.06777977023262702	0.5128175323430889	0.8777859942170463	-0.07979591461991285	0.5015739557120389	0.9104532894216691	-0.13787964453401944	0.5853287451538194	0.9030369105139036
174	3.702127659574468	0.2066526522849021	0.7725375724052297	0.32504496753883727	0.12665714477640955	0.640932003389911	0.6832619460450013	0.06285296111461196	1.0893784545379306	0.9591146953881552	0.05464994054982317	0.801574735571058	1.0167443373557197	0.1005020471175153	0.8480548565778202	1.0025943881485944	0.08825936580439364	1.1249381759684394	0.9773430263095935	-0.0014172733067956535	0.7941927421026455	0.26441513885139917	-0.08002394750487399	0.6398342832871979	0.5797778197818044	-0.08044089665281698	0.9773966406076446	0.8887271367488231	-0.0679383949328513	0.8571208390491776	1.0074800867686495	-0.12317841622391196	0.9259275393327737	1.0035737476383801	-0.0720993301441096	1.059939714074434	0.9330355553617918	0.007051750419638299	0.46682668104623004	0.36503190479741987	-0.08791355559016865	-0.018660619182855966	0.35192807536543885	-0.04517489795051695	0.21656015793983	0.44985720291340947	0.18518779996857332	0.34648260304688644	0.36295706773930503	0.19817702036717222	0.42288616339029544	0.6486626307025237	0.08473541806790648	0.35166472794052417	0.9019162268530472	-0.0035417724370177895	0.2828605649978107	0.9570782805697283	0.025159821410029093	0.1980295772288241	0.9709491416765647	0.08987644270252754	0.1900314561056446	0.976534729919497	-0.13792862759836505	0.45192271305457893	0.29912319853538644	-0.20817446031169212	0.6006902995793165	0.5220316424194588	-0.13126729532425593	0.5510398348356335	0.7751103704492828	-0.06622540194659374	0.4874702660538079	0.8659467530076144	-0.07771030032688933	0.5058108736354451	0.9044961728590193	-0.13485259072737243	0.5493244418395629	0.891537895345032
175	3.723404255319149	0.20960745016452376	0.7777711856945267	0.3218730928253708	0.1264508254131883	0.6102717568882443	0.6792921064822903	0.062375583498957374	1.0877717028384395	0.95841712116871	0.05464994054982317	0.801574735571058	1.0167443373557197	0.1005020471175153	0.8480548565778202	1.0025943881485944	0.08825936580439364	1.1249381759684394	0.9773430263095935	-0.000723937980074173	0.7933748235794964	0.2601247240700775	-0.08949971018791218	0.6794639086784823	0.6014278421710969	-0.0868804361025871	0.9572331662648905	0.8786231484053387	-0.0679383949328513	0.8571208390491776	1.0074800867686495	-0.12317841622391196	0.9259275393327737	1.0035737476383801	-0.0720993301441096	1.059939714074434	0.9330355553617918	0.011197592918330754	0.45724525758852375	0.370156158380425	-0.08778253105070825	-0.028183493283795533	0.34741421422901986	-0.04910857508476512	0.2156395994022255	0.4496217283384119	0.18533075442448296	0.346885179415568	0.3659539939039797	0.1949943918586228	0.4369612093256469	0.6485334687144281	0.07962506836349707	0.3543524414517161	0.9082502629515182	-0.0015040370232691869	0.2752056356660051	0.9659910400352412	0.022439809199790862	0.19615661635876444	0.9796686037087268	0.08645868627880933	0.20575609415631205	0.9882780849817536	-0.13599152036804965	0.4539751938279565	0.2961337630471528	-0.21352352246570652	0.6104919128109907	0.5131887448054215	-0.12679359663126347	0.5392573633878639	0.774057890057926	-0.061533313590829426	0.4762431501588733	0.8680520674102012	-0.07502435465438333	0.4811324451471486	0.8985975275880389	-0.12490586566804836	0.5227234227337844	0.8894873521136633
176	3.74468085106383	0.17450641125930835	0.8067106748146089	0.33170186800114504	0.12340847667832054	0.5898573061543342	0.6616838045705428	0.06189820588330279	1.0861649511389484	0.9577195469492648	0.05464994054982317	0.801574735571058	1.0167443373557197	0.1005020471175153	0.8480548565778202	1.0025943881485944	0.08825936580439364	1.1249381759684394	0.9773430263095935	-0.009055057970913405	0.77703269053187	0.2660910109419069	-0.10099282058121489	0.715722991258171	0.6110393116287005	-0.09331997555235721	0.9370696919221365	0.8685191600618545	-0.0679383949328513	0.8571208390491776	1.0074800867686495	-0.12317841622391196	0.9259275393327737	1.0035737476383801	-0.0720993301441096	1.059939714074434	0.9330355553617918	0.013705600902489954	0.4430779386921702	0.3620557081930657	-0.07343309223684046	-0.03440378850332423	0.3397712465873608	-0.04907289909852486	0.21073043852835296	0.43939963715252733	0.19068509111076412	0.3564072592078424	0.36418027035480405	0.18014821421933594	0.4531087389500676	0.6552340299482011	0.06756331384191729	0.3707528311545532	0.9166105076983408	-0.005171710737418042	0.29603907783316336	0.9873859321936469	0.019955666289522587	0.21471033937821493	1.0122991530210843	0.07911365246582676	0.2648384930647384	1.0240970041056798	-0.134492945061261	0.44276847716073864	0.29049390867130265	-0.22761649237033155	0.5899790948065998	0.5013456800057458	-0.13371243966382762	0.5157808425562908	0.7578215803559943	-0.05760211840094729	0.4539406461727791	0.8540573268578597	-0.07330049645650541	0.44880430021121853	0.8655640045473064	-0.12684204313525027	0.43961600080072677	0.857945199294176
177	3.765957446808511	0.19396126305829414	0.7818844316256248	0.3338818586898985	0.11921555408517076	0.6077207422293461	0.6671934383217057	0.061420828267648206	1.0845581994394573	0.9570219727298196	0.05464994054982317	0.801574735571058	1.0167443373557197	0.1005020471175153	0.8480548565778202	1.0025943881485944	0.08825936580439364	1.1249381759684394	0.9773430263095935	-0.017344898572999	0.7559354567195821	0.2615828144545447	-0.11248593097451759	0.7519820738378596	0.620650781086304	-0.08715237480207139	0.9624860553890215	0.8845224319472255	-0.0679383949328513	0.8571208390491776	1.0074800867686495	-0.12317841622391196	0.9259275393327737	1.0035737476383801	-0.0720993301441096	1.059939714074434	0.9330355553617918	0.01465706121079986	0.440053149734802	0.35868378789734207	-0.06708499182338229	-0.025630522811263424	0.3299441990270397	-0.05756411080807455	0.19466700153726488	0.4293019382261674	0.18610195488264714	0.3455930669341443	0.36496172596735205	0.17073393748110302	0.42956710443243296	0.6549957669281168	0.06302119940135943	0.38502960010866777	0.920834268009647	-0.005135765673956436	0.28094223917998296	0.9921393963877657	0.01792291440330117	0.2300713339940053	1.0245506451409943	0.08227682637523487	0.2749062260620866	1.0392858150000939	-0.1292461000211172	0.4230292917248467	0.2821671339866492	-0.2252869696696528	0.5996807458391948	0.49250995069096626	-0.12955229993173037	0.5018093739908374	0.7574200255584966	-0.05037350955430983	0.42728848811739356	0.85212389823863	-0.06144903620873314	0.4059162211725157	0.8599925124693902	-0.13492996488019549	0.41324811550942936	0.852011051457662
178	3.7872340425531914	0.19261646681504657	0.7903559623098327	0.3367967660788782	0.10441740220612619	0.580106686511582	0.6652102395992009	0.052582530003871475	1.0628843061135744	0.9454369404197946	0.05464994054982317	0.801574735571058	1.0167443373557197	0.1005020471175153	0.8480548565778202	1.0025943881485944	0.08825936580439364	1.1249381759684394	0.9773430263095935	-0.027440345573933843	0.7669479877350126	0.2974257696049001	-0.11624403067645502	0.7499037581313932	0.6403962526758654	-0.08266881753457413	0.9824139595609768	0.8969398759870605	-0.0679383949328513	0.8571208390491776	1.0074800867686495	-0.12317841622391196	0.9259275393327737	1.0035737476383801	-0.0720993301441096	1.059939714074434	0.9330355553617918	0.012454469668665636	0.44247010206106974	0.36198427549877277	-0.06177231648228906	-0.03397826360990733	0.3250545249444411	-0.06009192892718029	0.1910102201189932	0.42612567858528	0.18988392793697267	0.3579460313239738	0.36823335058091144	0.16675504683313913	0.42923445651338377	0.654790026938307	0.06322081104545788	0.38495933065704097	0.920910879989371	0.0053289542694053135	0.2595774979393698	0.9930416757512058	0.024293726805847505	0.230951684947894	1.0319182683478216	0.08287281560997471	0.29840109041531493	1.0462772089823136	-0.13062006977831153	0.41892359149722724	0.2804879086450376	-0.23182857935489112	0.5804299129888127	0.4901272287953168	-0.13228730830754237	0.4837475160289035	0.745613761472564	-0.049892869047414634	0.4226843888330777	0.8446023903837379	-0.05848998071871409	0.38920462255615856	0.8526247747199693	-0.1382327556347534	0.40079155982804027	0.8478264935783429
179	3.8085106382978724	0.19127167057179903	0.7988274929940407	0.3397116734678579	0.11203164192689108	0.5937427354691533	0.6634955032033474	0.05255949000503929	1.0623794965204814	0.9454315743405824	0.05464994054982317	0.801574735571058	1.0167443373557197	0.1005020471175153	0.8480548565778202	1.0025943881485944	0.08825936580439364	1.1249381759684394	0.9773430263095935	-0.0197605062130272	0.790994668060227	0.2758523710963186	-0.11185085510182041	0.7523895605180849	0.6160733136850125	-0.07591810807644482	1.0080336413468658	0.9114093772563449	-0.0679383949328513	0.8571208390491776	1.0074800867686495	-0.12317841622391196	0.9259275393327737	1.0035737476383801	-0.0720993301441096	1.059939714074434	0.9330355553617918	0.011005371742887337	0.45589723495112594	0.353529304249711	-0.06608552837142646	-0.04899229566013553	0.3319886525493372	-0.04173075359436903	0.19537441886931692	0.436887534360936	0.19359389643597052	0.3587011749818145	0.3654897616540935	0.16183274042634843	0.42941195265042775	0.6585354463595233	0.05632517338240363	0.38648310564167127	0.9209410787206038	0.007819881367270909	0.24751147869198015	0.9912031735731884	0.02305168341974359	0.232270684907527	1.0355023469800189	0.08314808661505153	0.32412167704648825	1.0568113202581613	-0.1305475159774507	0.41510352143360457	0.2736748726005462	-0.23821457242247712	0.5791170698786159	0.4865557455567328	-0.1344393535242699	0.4691197300529033	0.7375801500439118	-0.05598015155562123	0.4092068278072473	0.8407681842619762	-0.0721836996343041	0.35382800803121794	0.8487699197691764	-0.13917883406198908	0.3973411888086848	0.843753030745981
